<svg xmlns="http://www.w3.org/2000/svg" width="422.3" height="275.9" viewBox="0 0 422.3 275.9"><path fill="#FFA606" d="M45.9 130.5l-4-12h-24l-4.1 12H0l24.6-67.6H35l24.7 67.6H45.9zM30.1 82.8l-8.5 24.6h16.8l-8.3-24.6zM82.4 149.2c-7.6 0-12.8-1.5-18-6.5l7.7-7.8c2.8 2.7 5.5 3.8 9.7 3.8 7.4 0 10-5.2 10-10.3v-5c-3.2 3.6-6.9 4.9-11.8 4.9-4.8 0-9-1.6-11.8-4.4-4.7-4.7-5-11-5-19.7 0-8.6.4-14.9 5-19.6 2.8-2.8 7-4.4 11.9-4.4 5.2 0 8.6 1.4 12.1 5.2V81h12v47.7c-.1 11.9-8.5 20.5-21.8 20.5m1.2-57.7c-7.3 0-8.1 6.3-8.1 12.8 0 6.6.8 12.9 8.1 12.9s8.2-6.4 8.2-12.9-.9-12.8-8.2-12.8M143.1 94.5c-1.9-1.9-3.5-2.9-6.6-2.9-3.8 0-8 2.8-8 9.1v29.8h-12.3V81h12.1v4.7c2.4-2.8 7.1-5.3 12.4-5.3 4.8 0 8.3 1.2 11.7 4.7l-9.3 9.4zM159.2 62.5h12.6v10.1h-12.6V62.5zm.2 18.5h12.3v49.5h-12.3V81z"/><path fill="#474847" d="M13.3 164.8v16.6H40v11.8H13.3v27.4H.1V153h44.6v11.8zM83.2 215.1c-3 3.2-8.1 6.1-15.4 6.1-7.3 0-12.3-2.9-15.3-6.1-4.5-4.7-5.6-10.3-5.6-19.3 0-8.9 1.1-14.5 5.6-19.2 3-3.2 8-6.1 15.3-6.1 7.3 0 12.3 2.9 15.4 6.1 4.5 4.7 5.6 10.3 5.6 19.2 0 9.1-1.1 14.7-5.6 19.3m-9.6-31.2c-1.4-1.4-3.3-2.2-5.8-2.2s-4.3.8-5.7 2.2c-2.6 2.6-2.9 6.8-2.9 12 0 5.1.3 9.5 2.9 12.1 1.4 1.4 3.2 2.2 5.7 2.2s4.4-.8 5.8-2.2c2.6-2.6 2.8-6.9 2.8-12.1.1-5.2-.2-9.5-2.8-12M134.1 220.6l-13.2-27h-9.5v27H98.2V153h26.5c13.8 0 21.9 9.4 21.9 20.7 0 9.5-5.8 15.4-12.3 17.8l15.1 29.2h-15.3zm-10.2-55.8h-12.4v17.9h12.4c5.8 0 9.6-3.7 9.6-8.9 0-5.3-3.8-9-9.6-9M209.6 220.6h-10.2l-10.4-31-10.3 31h-10.2l-15.2-49.5h13.1l8 30.6 10.1-30.6h9l10.2 30.6 8-30.6h13zM268.2 220.6l-4-12h-24l-4.1 12h-13.8l24.6-67.6h10.4l24.7 67.6h-13.8zm-15.8-47.7l-8.5 24.6h16.8l-8.3-24.6zM314 184.6c-1.9-1.9-3.5-2.9-6.6-2.9-3.8 0-8 2.8-8 9.1v29.8h-12.3v-49.5h12.1v4.8c2.4-2.9 7.1-5.3 12.4-5.3 4.8 0 8.3 1.2 11.7 4.7l-9.3 9.3zM354.4 220.6V216c-3.4 3.8-7 5.2-12.3 5.2-4.8 0-9.4-1.7-12.2-4.5-4.9-4.9-5-13.5-5-20.9 0-7.4.1-15.9 5-20.8 2.8-2.8 7.2-4.5 12.1-4.5 5 0 8.8 1.3 12.1 4.9V153h12.3v67.6h-12zm-8.7-38.9c-7.4 0-8.4 6.1-8.4 14.2s.9 14.2 8.4 14.2c7.4 0 8.5-6.2 8.5-14.2-.1-8.1-1.1-14.2-8.5-14.2M396.7 221.2c-10.3 0-18-2.2-24.7-8.9l8.5-8.5c4.3 4.3 10.1 5.7 16.3 5.7 7.8 0 12-2.9 12-8.4 0-2.4-.7-4.4-2.1-5.7-1.3-1.2-2.8-1.9-6-2.4l-8.2-1.1c-5.8-.9-10.1-2.7-13.1-5.6-3.2-3.2-4.8-7.6-4.8-13.3 0-12.1 8.9-20.5 23.6-20.5 9.3 0 16.1 2.3 21.8 7.9l-8.4 8.3c-4.3-4.1-9.4-4.7-13.9-4.7-7 0-10.5 3.9-10.5 8.5 0 1.7.6 3.5 2 4.8 1.3 1.2 3.5 2.3 6.3 2.7l8 1.1c6.2.9 10.1 2.6 12.9 5.2 3.6 3.4 5.2 8.4 5.2 14.3.2 13.2-10.7 20.6-24.9 20.6"/><path fill="#FFA606" d="M293.8 67.4c0-14 3.6-27.2 9.8-38.3C292.3 11.5 273.5 0 252.3 0 217.9 0 190 30.2 190 67.5c0 33.6 22.7 61.5 52.4 66.6-4.6-2.6-10.1-6.2-12.9-9.9-2.4-3.2-1-5.3-.7-8.1.2-2.2-.1-4.7-.3-5.9-1.2-3.3-2.9-6.5-5.2-9.6 3 3 5.4 6.2 7.3 9.5 3.7 1.2 11.1 4.1 14.8 9 3.5 4.7 4.1 11.7 4.1 15.6.9 0 1.8.1 2.7.1h2.2c0-3.9.6-11 4.1-15.7 3.7-4.9 11-7.8 14.8-9 1.9-3.4 4.4-6.6 7.3-9.5-2.2 3.1-4 6.3-5.2 9.6-.2 1.2-.5 3.7-.3 5.9.3 2.8 1.7 4.9-.7 8.1-2.8 3.7-8.5 7.4-13.1 10 17.4-2.8 32.5-13.4 42.1-28.4-6.1-11.2-9.6-24.3-9.6-38.4m-44.3 48s-14.9-6.8-19.9-13.5c-2.4-3.2-1-5.3-.7-8.1.2-2.2-.1-4.7-.3-5.8-1.2-3.3-2.9-6.5-5.2-9.6 3 3 5.4 6.2 7.3 9.5 3.7 1.2 11.1 4.1 14.8 9 5 6.7 4 18.5 4 18.5m0-22.4s-14.9-6.8-19.9-13.5c-2.4-3.2-1-5.3-.7-8.1.2-2.2-.1-4.7-.3-5.9-1.2-3.3-2.9-6.5-5.2-9.6 3 3 5.4 6.2 7.3 9.5 3.7 1.2 11.1 4.1 14.8 9 5 6.9 4 18.6 4 18.6m0-22.3s-14.9-6.8-19.9-13.5c-2.4-3.2-1-5.3-.7-8.1.2-2.2-.1-4.7-.3-5.9-1.2-3.3-2.9-6.5-5.2-9.6 3 3 5.4 6.2 7.3 9.5 3.7 1.2 11.1 4.1 14.8 9 5 6.8 4 18.6 4 18.6m2.5-19.4s-2.7-5-5.6-7.3c-2.3-1.8-4.8-3.8-4.8-6.4C241.7 30 252 20 252 20s10.3 10 10.3 17.5c0 2.6-2.5 4.6-4.8 6.4-2.7 2.4-5.5 7.4-5.5 7.4m23.6 36.6c-.2 1.2-.5 3.6-.3 5.8.3 2.8 1.7 4.9-.7 8.1-5 6.7-19.9 13.5-19.9 13.5s-1-11.8 4-18.5c3.7-4.9 11-7.8 14.8-9 1.9-3.4 4.4-6.6 7.3-9.5-2.3 3-4 6.3-5.2 9.6m0-22.4c-.2 1.2-.5 3.7-.3 5.9.3 2.8 1.7 4.9-.7 8.1-5 6.7-19.9 13.5-19.9 13.5s-1-11.8 4-18.5c3.7-4.9 11-7.8 14.8-9 1.9-3.4 4.4-6.6 7.3-9.5-2.3 3-4 6.2-5.2 9.5m0-22.3c-.2 1.2-.5 3.6-.3 5.9.3 2.8 1.7 4.9-.7 8.1-5 6.7-19.9 13.5-19.9 13.5s-1-11.8 4-18.5c3.7-4.9 11-7.8 14.8-9 1.9-3.4 4.4-6.6 7.3-9.5-2.3 2.9-4 6.2-5.2 9.5"/><path fill="none" stroke="#474847" stroke-linecap="round" stroke-width="7.322" d="M359.9 96.2v35.1"/><path fill="#474847" d="M.2 272.3v-12h7.7v1.7H2v3.5h5v1.6H2v3.6h5.9v1.6zM14.7 267.6H12v4.7h-1.8v-12h4.6c2.4 0 3.9 1.5 3.9 3.6s-1.7 3.7-4 3.7m-.1-5.6H12v4h2.6c1.3 0 2.1-.7 2.1-2s-.9-2-2.1-2M23.7 272.4c-1.8 0-3.1-.4-4.3-1.6l1.2-1.2c.9.9 1.8 1.1 3.1 1.1 1.6 0 2.5-.7 2.5-1.8 0-.5-.2-1-.5-1.2-.3-.3-.6-.4-1.3-.5L23 267c-1-.1-1.8-.5-2.3-1-.6-.6-.9-1.3-.9-2.3 0-2.1 1.5-3.5 4-3.5 1.6 0 2.7.4 3.7 1.4l-1.2 1.1c-.7-.7-1.6-.9-2.6-.9-1.4 0-2.2.8-2.2 1.9 0 .4.1.8.5 1.1.3.3.8.5 1.4.6l1.4.2c1.1.2 1.7.4 2.2.9.7.6 1 1.4 1 2.5 0 2.1-1.8 3.4-4.3 3.4M36.8 272.3l-2.5-5.1H32v5.1h-1.8v-12h4.7c2.3 0 3.7 1.5 3.7 3.5 0 1.7-1 2.8-2.4 3.2l2.8 5.3h-2.2zM34.7 262H32v3.8h2.7c1.2 0 2-.7 2-1.9s-.8-1.9-2-1.9M44.9 272.4c-1.3 0-2.3-.5-3.2-1.3-1.2-1.2-1.2-2.5-1.2-4.8s0-3.6 1.2-4.8c.8-.8 1.9-1.3 3.2-1.3 2.2 0 3.9 1.3 4.3 3.7h-1.9c-.3-1.2-1.1-2.1-2.4-2.1-.7 0-1.4.3-1.8.7-.6.6-.7 1.3-.7 3.7 0 2.4.1 3.1.7 3.7.4.5 1.1.7 1.8.7 1.3 0 2.2-.8 2.5-2.1h1.8c-.4 2.6-2.2 3.9-4.3 3.9M59 272.4c-1.3 0-2.3-.5-3.2-1.3-1.2-1.2-1.2-2.5-1.2-4.8s0-3.6 1.2-4.8c.8-.8 1.9-1.3 3.2-1.3 2.2 0 3.9 1.3 4.3 3.7h-1.9c-.3-1.2-1.1-2.1-2.4-2.1-.7 0-1.4.3-1.8.7-.6.6-.7 1.3-.7 3.7 0 2.4.1 3.1.7 3.7.4.5 1.1.7 1.8.7 1.3 0 2.2-.8 2.5-2.1h1.8c-.4 2.6-2.1 3.9-4.3 3.9M66.5 268.6c0 1.5.8 2.4 2.2 2.4 1 0 1.5-.3 2.1-.9l1.1 1c-.9.9-1.7 1.3-3.2 1.3-2.1 0-3.9-1.1-3.9-4.4 0-2.8 1.4-4.4 3.6-4.4 2.3 0 3.6 1.7 3.6 4.1v.8h-5.5zm3.7-2.4c-.3-.6-.9-1.1-1.7-1.1s-1.4.4-1.7 1.1c-.2.4-.2.6-.2 1.2h3.9c-.1-.6-.2-.8-.3-1.2M79.3 272.3v-5.2c0-1.3-.8-1.9-1.7-1.9-1 0-1.8.6-1.8 1.9v5.2h-1.7v-8.5h1.7v.9c.6-.6 1.4-1 2.3-1 .9 0 1.6.3 2.1.8.7.6.9 1.4.9 2.4v5.5h-1.8zM86 272.3c-1.6 0-2.4-1.1-2.4-2.4v-4.7h-1V264h1v-2.6h1.7v2.6H87v1.3h-1.7v4.6c0 .6.3 1 .9 1h.8v1.5h-1zM93.7 265.8c-.4-.4-.7-.6-1.3-.6-.9 0-1.7.7-1.7 1.9v5.2H89v-8.5h1.7v.9c.4-.6 1.3-1 2.3-1 .8 0 1.5.2 2 .8l-1.3 1.3zM96.8 268.6c0 1.5.8 2.4 2.2 2.4 1 0 1.5-.3 2.1-.9l1.1 1c-.9.9-1.7 1.3-3.2 1.3-2.1 0-3.9-1.1-3.9-4.4 0-2.8 1.4-4.4 3.6-4.4 2.3 0 3.6 1.7 3.6 4.1v.8h-5.5zm3.7-2.4c-.3-.6-.9-1.1-1.7-1.1-.8 0-1.4.4-1.7 1.1-.2.4-.2.6-.2 1.2h3.9c-.1-.6-.2-.8-.3-1.2M110.2 265.3v7.1h-1.7v-7.1h-1V264h1v-1.3c0-1.2.7-2.4 2.4-2.4h1.1v1.5h-.8c-.6 0-.9.4-.9 1v1.2h1.7v1.3h-1.8zM118.9 271.4c-.6.6-1.4 1-2.6 1s-2-.4-2.6-1c-.8-.8-1-1.9-1-3.4 0-1.4.2-2.5 1-3.4.6-.6 1.4-1 2.6-1s2 .4 2.6 1c.8.8 1 1.9 1 3.4.1 1.5-.1 2.6-1 3.4m-1.3-5.7c-.3-.3-.8-.5-1.3-.5s-.9.2-1.3.5c-.5.5-.6 1.4-.6 2.3 0 .9.1 1.8.6 2.3.3.3.7.5 1.3.5.5 0 .9-.2 1.3-.5.5-.5.6-1.4.6-2.3 0-.9 0-1.8-.6-2.3M126.7 265.8c-.4-.4-.7-.6-1.3-.6-.9 0-1.7.7-1.7 1.9v5.2H122v-8.5h1.7v.9c.4-.6 1.3-1 2.3-1 .8 0 1.5.2 2 .8l-1.3 1.3zM140.5 271.2c-.8.8-1.9 1.1-3.1 1.1h-4.2v-12h4.2c1.3 0 2.4.4 3.1 1.1 1.3 1.3 1.2 3 1.2 4.8 0 1.8.1 3.7-1.2 5m-1.3-8.4c-.5-.6-1.2-.8-2-.8H135v8.7h2.2c.9 0 1.5-.3 2-.8.6-.7.6-2 .6-3.6.1-1.7.1-2.8-.6-3.5M149.7 271.4c-.6.6-1.4 1-2.6 1s-2-.4-2.6-1c-.8-.8-1-1.9-1-3.4 0-1.4.2-2.5 1-3.4.6-.6 1.4-1 2.6-1s2 .4 2.6 1c.8.8 1 1.9 1 3.4s-.2 2.6-1 3.4m-1.3-5.7c-.3-.3-.8-.5-1.3-.5s-.9.2-1.3.5c-.5.5-.6 1.4-.6 2.3 0 .9.1 1.8.6 2.3.3.3.7.5 1.3.5.5 0 .9-.2 1.3-.5.5-.5.6-1.4.6-2.3 0-.9-.1-1.8-.6-2.3M156.1 272.4c-1.9 0-3.8-1.2-3.8-4.4s1.9-4.4 3.8-4.4c1.2 0 2 .3 2.8 1.2l-1.2 1.1c-.5-.6-1-.8-1.6-.8-.7 0-1.2.3-1.6.8-.4.5-.5 1.1-.5 2.1s.1 1.6.5 2.1.9.8 1.6.8c.7 0 1.1-.2 1.6-.8l1.2 1.1c-.7.9-1.6 1.2-2.8 1.2M163.3 272.3c-1.6 0-2.4-1.1-2.4-2.4v-4.7h-1V264h1v-2.6h1.7v2.6h1.7v1.3h-1.7v4.6c0 .6.3 1 .9 1h.7v1.5h-.9zM171.9 271.4c-.6.6-1.4 1-2.6 1s-2-.4-2.6-1c-.8-.8-1-1.9-1-3.4 0-1.4.2-2.5 1-3.4.6-.6 1.4-1 2.6-1s2 .4 2.6 1c.8.8 1 1.9 1 3.4s-.2 2.6-1 3.4m-1.3-5.7c-.3-.3-.8-.5-1.3-.5s-.9.2-1.3.5c-.5.5-.6 1.4-.6 2.3 0 .9.1 1.8.6 2.3.3.3.7.5 1.3.5.5 0 .9-.2 1.3-.5.5-.5.6-1.4.6-2.3 0-.9-.1-1.8-.6-2.3M179.7 265.8c-.4-.4-.7-.6-1.3-.6-.9 0-1.7.7-1.7 1.9v5.2H175v-8.5h1.7v.9c.4-.6 1.3-1 2.3-1 .8 0 1.5.2 2 .8l-1.3 1.3zM186.6 272.3v-.8c-.6.6-1.2.9-2.3.9-1.1 0-1.8-.3-2.3-.8-.4-.5-.7-1.1-.7-1.8 0-1.4 1-2.5 3-2.5h2.3v-.6c0-1.1-.5-1.6-1.9-1.6-.9 0-1.4.2-1.9.8l-1.1-1.1c.8-.9 1.7-1.2 3.1-1.2 2.4 0 3.5 1 3.5 2.9v5.7h-1.7zm-.1-3.7h-2c-1 0-1.5.5-1.5 1.2 0 .8.5 1.2 1.6 1.2.7 0 1.1 0 1.6-.5.3-.3.4-.7.4-1.3v-.6zM192.9 272.3c-1.6 0-2.4-1.1-2.4-2.4v-9.6h1.7v9.5c0 .7.2 1 .9 1h.8v1.5h-1zM203.7 262v10.3h-1.8V262h-3.4v-1.7h8.5v1.7zM212.7 265.8c-.4-.4-.7-.6-1.3-.6-.9 0-1.7.7-1.7 1.9v5.2H208v-8.5h1.7v.9c.4-.6 1.3-1 2.3-1 .8 0 1.5.2 2 .8l-1.3 1.3zM219.5 272.3v-.8c-.6.6-1.2.9-2.3.9-1.1 0-1.8-.3-2.3-.8-.4-.5-.7-1.1-.7-1.8 0-1.4 1-2.5 3-2.5h2.3v-.6c0-1.1-.5-1.6-1.9-1.6-.9 0-1.4.2-1.9.8l-1.1-1.1c.8-.9 1.7-1.2 3.1-1.2 2.4 0 3.5 1 3.5 2.9v5.7h-1.7zm0-3.7h-2c-1 0-1.5.5-1.5 1.2 0 .8.5 1.2 1.6 1.2.7 0 1.2 0 1.6-.5.3-.3.4-.7.4-1.3v-.6zM223.5 260.3h1.8v1.8h-1.8v-1.8zm.1 3.5h1.7v8.5h-1.7v-8.5zM233 272.3v-5.2c0-1.3-.8-1.9-1.7-1.9-1 0-1.8.6-1.8 1.9v5.2h-1.7v-8.5h1.7v.9c.6-.6 1.4-1 2.3-1 .9 0 1.6.3 2.1.8.7.6.9 1.4.9 2.4v5.5H233zM237.1 260.3h1.8v1.8h-1.8v-1.8zm0 3.5h1.7v8.5h-1.7v-8.5zM246.5 272.3v-5.2c0-1.3-.8-1.9-1.7-1.9-1 0-1.8.6-1.8 1.9v5.2h-1.7v-8.5h1.7v.9c.6-.6 1.4-1 2.3-1 .9 0 1.6.3 2.1.8.7.6.9 1.4.9 2.4v5.5h-1.8zM253.5 275.9c-1.3 0-2.1-.3-3-1.1l1.1-1.1c.5.5 1 .8 1.9.8 1.5 0 2-1 2-2.2v-1.1c-.6.7-1.3 1-2.2 1-.9 0-1.6-.3-2-.8-.8-.8-1-2-1-3.5s.1-2.6 1-3.5c.5-.5 1.2-.7 2.1-.7.9 0 1.6.2 2.2 1v-.9h1.7v8.5c-.1 2.1-1.5 3.6-3.8 3.6m.2-10.7c-1.6 0-1.8 1.3-1.8 2.7s.2 2.7 1.8 2.7 1.7-1.3 1.7-2.7-.1-2.7-1.7-2.7M263.4 260.3h1.8v1.8h-1.8v-1.8zm.1 3.5h1.7v8.5h-1.7v-8.5zM272.9 272.3v-5.2c0-1.3-.8-1.9-1.7-1.9-1 0-1.8.6-1.8 1.9v5.2h-1.7v-8.5h1.7v.9c.6-.6 1.4-1 2.3-1 .9 0 1.6.3 2.1.8.7.6.9 1.4.9 2.4v5.5h-1.8zM287.9 272.3l-.8-2.4h-4.8l-.8 2.4h-1.9l4.4-12h1.5l4.4 12h-2zm-3.2-9.2l-1.9 5.3h3.7l-1.8-5.3zM294 275.9c-1.3 0-2.1-.3-3-1.1l1.1-1.1c.5.5 1 .8 1.9.8 1.5 0 2-1 2-2.2v-1.1c-.6.7-1.3 1-2.2 1-.9 0-1.6-.3-2-.8-.8-.8-1-2-1-3.5s.1-2.6 1-3.5c.5-.5 1.2-.7 2.1-.7.9 0 1.6.2 2.2 1v-.9h1.7v8.5c-.2 2.1-1.6 3.6-3.8 3.6m.2-10.7c-1.6 0-1.8 1.3-1.8 2.7s.2 2.7 1.8 2.7 1.7-1.3 1.7-2.7-.2-2.7-1.7-2.7M304.8 265.8c-.4-.4-.7-.6-1.3-.6-.9 0-1.7.7-1.7 1.9v5.2h-1.7v-8.5h1.7v.9c.4-.6 1.3-1 2.3-1 .8 0 1.5.2 2 .8l-1.3 1.3zM307.2 260.3h1.8v1.8h-1.8v-1.8zm0 3.5h1.7v8.5h-1.7v-8.5zM311.2 266.9h4.9v1.6h-4.9zM320.4 262v3.6h5v1.7h-5v5h-1.8v-12h7.7v1.7zM333.1 271.4c-.6.6-1.4 1-2.6 1s-2-.4-2.6-1c-.8-.8-1-1.9-1-3.4 0-1.4.2-2.5 1-3.4.6-.6 1.4-1 2.6-1s2 .4 2.6 1c.8.8 1 1.9 1 3.4.1 1.5-.1 2.6-1 3.4m-1.3-5.7c-.3-.3-.8-.5-1.3-.5s-.9.2-1.3.5c-.5.5-.6 1.4-.6 2.3 0 .9.1 1.8.6 2.3.3.3.7.5 1.3.5.5 0 .9-.2 1.3-.5.5-.5.6-1.4.6-2.3 0-.9 0-1.8-.6-2.3M342 271.4c-.6.6-1.4 1-2.6 1s-2-.4-2.6-1c-.8-.8-1-1.9-1-3.4 0-1.4.2-2.5 1-3.4.6-.6 1.4-1 2.6-1s2 .4 2.6 1c.8.8 1 1.9 1 3.4s-.2 2.6-1 3.4m-1.3-5.7c-.3-.3-.8-.5-1.3-.5s-.9.2-1.3.5c-.5.5-.6 1.4-.6 2.3 0 .9.1 1.8.6 2.3.3.3.7.5 1.3.5.5 0 .9-.2 1.3-.5.5-.5.6-1.4.6-2.3-.1-.9-.1-1.8-.6-2.3M350 272.3v-.9c-.6.8-1.3 1-2.3 1-.9 0-1.6-.3-2.1-.8-.9-.9-1-2.3-1-3.6 0-1.3.1-2.7 1-3.6.5-.5 1.2-.8 2.1-.8.9 0 1.6.2 2.2 1v-4.3h1.7v12H350zm-1.8-7.1c-1.6 0-1.8 1.3-1.8 2.8 0 1.5.2 2.8 1.8 2.8s1.8-1.3 1.8-2.8c-.1-1.5-.3-2.8-1.8-2.8M364.7 272.3l-2.5-5.1h-2.3v5.1h-1.8v-12h4.7c2.3 0 3.7 1.5 3.7 3.5 0 1.7-1 2.8-2.4 3.2l2.8 5.3h-2.2zm-2.1-10.3h-2.7v3.8h2.7c1.2 0 2-.7 2-1.9.1-1.2-.7-1.9-2-1.9M374.4 271.4c-.6.6-1.4 1-2.6 1s-2-.4-2.6-1c-.8-.8-1-1.9-1-3.4 0-1.4.2-2.5 1-3.4.6-.6 1.4-1 2.6-1s2 .4 2.6 1c.8.8 1 1.9 1 3.4s-.2 2.6-1 3.4m-1.3-5.7c-.3-.3-.8-.5-1.3-.5s-.9.2-1.3.5c-.5.5-.6 1.4-.6 2.3 0 .9.1 1.8.6 2.3.3.3.7.5 1.3.5.5 0 .9-.2 1.3-.5.5-.5.6-1.4.6-2.3 0-.9-.1-1.8-.6-2.3M383.6 271.7c-.5.5-1.2.8-2.1.8-.9 0-1.6-.2-2.3-1v.9h-1.7v-12h1.7v4.3c.6-.7 1.3-1 2.2-1 .9 0 1.6.3 2.1.8.9.9 1 2.3 1 3.6 0 1.3-.1 2.7-.9 3.6m-2.6-6.5c-1.6 0-1.8 1.3-1.8 2.8 0 1.5.2 2.8 1.8 2.8s1.8-1.3 1.8-2.8c0-1.5-.2-2.8-1.8-2.8M392.3 271.4c-.6.6-1.4 1-2.6 1s-2-.4-2.6-1c-.8-.8-1-1.9-1-3.4 0-1.4.2-2.5 1-3.4.6-.6 1.4-1 2.6-1s2 .4 2.6 1c.8.8 1 1.9 1 3.4s-.2 2.6-1 3.4m-1.3-5.7c-.3-.3-.8-.5-1.3-.5s-.9.2-1.3.5c-.5.5-.6 1.4-.6 2.3 0 .9.1 1.8.6 2.3.3.3.7.5 1.3.5.5 0 .9-.2 1.3-.5.5-.5.6-1.4.6-2.3 0-.9-.1-1.8-.6-2.3M397.9 272.3c-1.6 0-2.4-1.1-2.4-2.4v-4.7h-1V264h1v-2.6h1.7v2.6h1.7v1.3h-1.7v4.6c0 .6.3 1 .9 1h.7v1.5h-.9zM400.8 260.3h1.8v1.8h-1.8v-1.8zm.1 3.5h1.7v8.5h-1.7v-8.5zM408.5 272.4c-1.9 0-3.8-1.2-3.8-4.4s1.9-4.4 3.8-4.4c1.2 0 2 .3 2.8 1.2l-1.2 1.1c-.5-.6-1-.8-1.6-.8-.7 0-1.2.3-1.6.8-.4.5-.5 1.1-.5 2.1s.1 1.6.5 2.1.9.8 1.6.8c.7 0 1.1-.2 1.6-.8l1.2 1.1c-.8.9-1.6 1.2-2.8 1.2M415.8 272.4c-1.4 0-2.6-.2-3.6-1.2l1.1-1.1c.7.7 1.6.9 2.5.9 1 0 1.9-.4 1.9-1.2 0-.6-.3-.9-1.2-1l-1.4-.1c-1.6-.1-2.5-.9-2.5-2.4 0-1.7 1.4-2.6 3.2-2.6 1.3 0 2.4.3 3.2 1l-1.1 1.1c-.5-.5-1.3-.6-2.1-.6-1 0-1.6.5-1.6 1.1 0 .5.3.9 1.2 1l1.4.1c1.6.1 2.6.9 2.6 2.4 0 1.7-1.6 2.6-3.6 2.6"/><g><path fill="#474847" d="M386.3 44c-1.2-1.2-1.2-3.2 0-4.4 1.2-1.2 3.2-1.2 4.4 0 1.2 1.2 1.2 3.2 0 4.4-1.2 1.2-3.2 1.2-4.4 0"/></g><g fill="#474847"><path d="M359.9 59.5c-4.4 0-7.9 3.5-7.9 7.9s3.5 7.9 7.9 7.9 7.9-3.5 7.9-7.9c0-4.3-3.6-7.9-7.9-7.9M329.2 39.6c-1.2 1.2-1.2 3.2 0 4.4 1.2 1.2 3.2 1.2 4.4 0 1.2-1.2 1.2-3.2 0-4.4-1.2-1.2-3.1-1.2-4.4 0"/><path d="M360 0c-34.4 0-62.3 30.2-62.3 67.5 0 32.6 21.3 59.7 49.6 66.1V80.8c3 3.6 7.5 5.9 12.6 5.9 4.9 0 9.3-2.2 12.3-5.6v52.5c28.5-6.2 50-33.4 50-66.1C422.3 30.2 394.4 0 360 0m32.9 45.2l-18.6 18.6c.3 1.2.5 2.5.5 3.8 0 8.2-6.7 14.9-14.9 14.9S345 75.8 345 67.6c0-1.4.2-2.7.5-3.9l-18.4-18.4c-2.1-2.1-2.1-5.6 0-7.8 1.6-1.6 4.1-2 6.1-1.1l14.9-14.9c1-1 2.6-1 3.6 0s1 2.6 0 3.6l-14.6 14.6 15.1 15.1c2.2-1.4 4.9-2.1 7.7-2.1 2.9 0 5.5.8 7.8 2.2l15.1-15.1-14.6-14.6c-1-1-1-2.6 0-3.6s2.6-1 3.6 0l14.9 14.9c2-.9 4.5-.6 6.2 1.1 2.1 2 2.1 5.4 0 7.6"/></g></svg>